<?xml version="1.0" encoding="UTF-8"?>
<!DOCTYPE svg PUBLIC "-//W3C//DTD SVG 1.1//EN" "http://www.w3.org/Graphics/SVG/1.1/DTD/svg11.dtd">
<svg xmlns="http://www.w3.org/2000/svg" version="1.1" width="800px" height="800px" style="shape-rendering:geometricPrecision; text-rendering:geometricPrecision; image-rendering:optimizeQuality; fill-rule:evenodd; clip-rule:evenodd" xmlns:xlink="http://www.w3.org/1999/xlink">
<g><path style="opacity:0.973" fill="#fefefe" d="M 159.5,132.5 C 170.714,131.184 180.714,134.017 189.5,141C 259.347,211.014 329.347,280.847 399.5,350.5C 469.653,280.847 539.653,211.014 609.5,141C 622.314,131.298 635.981,129.965 650.5,137C 665.408,147.785 669.908,161.951 664,179.5C 662.416,183.675 660.082,187.341 657,190.5C 587.32,260.014 517.82,329.68 448.5,399.5C 519.514,470.68 590.347,542.014 661,613.5C 670.292,630.972 667.792,646.472 653.5,660C 638.381,669.206 623.714,668.539 609.5,658C 539.653,587.986 469.653,518.153 399.5,448.5C 329.347,518.153 259.347,587.986 189.5,658C 176.686,667.702 163.019,669.035 148.5,662C 133.592,651.215 129.092,637.049 135,619.5C 136.584,615.325 138.918,611.659 142,608.5C 211.68,538.986 281.18,469.32 350.5,399.5C 279.486,328.32 208.653,256.986 138,185.5C 128.708,168.028 131.208,152.528 145.5,139C 149.877,135.975 154.544,133.808 159.5,132.5 Z"/></g>
</svg>
